/* XPM */
static char *Gen[] = {
/* columns rows colors chars-per-pixel */
"24 24 39 1",
"  c opaque",
". c #0a0908",
"X c #161614",
"o c #181816",
"O c #21201e",
"+ c #282724",
"@ c #363430",
"# c #403f3a",
"$ c #42413d",
"% c #484641",
"& c #494943",
"* c #53514c",
"= c #5b5954",
"- c #605e57",
"; c #65635c",
": c #686661",
"> c #6c6a63",
", c #76746b",
"< c #78756c",
"1 c #767573",
"2 c #7b7973",
"3 c #807d74",
"4 c #84827a",
"5 c #888781",
"6 c #8a8983",
"7 c #8c8b89",
"8 c #908e86",
"9 c #95938d",
"0 c #9e9c95",
"q c #a8a7a1",
"w c #aba9a3",
"e c #b0afab",
"r c #b6b5af",
"t c #b5b4b2",
"y c #cfceca",
"u c #d5d4d1",
"i c #dedddb",
"p c #e3e3e2",
"a c None",
/* pixels */
"aaaaaaaaaaaaaaaaaaaaaaaa",
"aaaaaa     aaaaaaaaaaaaa",
"aaaa         aaaaaaaaaaa",
"aaa    y      aaaaaaaaaa",
"aaa  p9674     aaaaaaaaa",
"aa   2>@;2     aaaaaaaaa",
"aa  i9*X10*    aaaaaaaaa",
"aa   250t2     aaaaaaaaa",
"aa   6><-*        aaaaaa",
"aa     #             aaa",
"aaa           p       aa",
"aaa       pt %0% 6     a",
"aaaa      ew000893&    a",
"aaaaaa     00=-63<     a",
"aaaaaaa   %0-$+@0>%     ",
"aaaaaaa  pt0=O.op3;-    ",
"aaaaaaa   %06@o8i;%     ",
"aaaaaaa    e2rpu9;      ",
"aaaaaaa   uw023<<=%     ",
"aaaaaaaa   = &<$ &     a",
"aaaaaaaa      $        a",
"aaaaaaaa               a",
"aaaaaaaaa             aa",
"aaaaaaaaaa           aaa"
};
