/* XPM */
static char *future[] = {
/* columns rows colors chars-per-pixel */
"24 24 22 1",
"  c opaque",
". c #0a0905",
"X c #0f0d08",
"o c #13110a",
"O c #1a170e",
"+ c #1c190f",
"@ c #1e1b10",
"# c #272315",
"$ c #282415",
"% c #2e2a19",
"& c #352f1c",
"* c #38331e",
"= c #3c3620",
"- c #433c24",
"; c #4d4529",
": c #544b2d",
"> c #595030",
", c #605633",
"< c #635935",
"1 c #6c613a",
"2 c #eed680",
"3 c None",
/* pixels */
"333333333333333333333333",
"333333333333333333333333",
"333333333333333333333333",
"333333333333333333333333",
"333333333333333333332333",
"3331**<3;@3;@3$<-***+333",
"333333333333333333333333",
"333,&*$%3*o@@%;-o3;**333",
"333333332333333333333333",
"333<-*=*+ 33,&=$%3;**333",
"333333333333333332333333",
"333-=$3-**$.3;**O%X3#333",
"333333333333333333333333",
"333:*=*;@. @<***&o 3;333",
"333333333333333333332333",
"333,*+3,&@ 3333<-==*@333",
"333333333333333333333333",
"333>&o  -$&. 3333,&=$333",
"333333333333333333333333",
"333;**O ,&*$%3;*=3,&*333",
"333333333333323333333333",
"333333333333333333333333",
"333333333333333333333333",
"333333333333333333333333"
};
