/* XPM */
static char *interface[] = {
/* columns rows colors chars-per-pixel */
"24 24 24 1",
"  c opaque",
". c #0a0905",
"X c #13110a",
"o c #1a170e",
"O c #1b180e",
"+ c #1e1b10",
"@ c #201c11",
"# c #292516",
"$ c #2f2a19",
"% c #302c1a",
"& c #37321d",
"* c #38331e",
"= c #3f3822",
"- c #443d24",
"; c #474026",
": c #494127",
"> c #4e4629",
", c #534b2c",
"< c #584f2f",
"1 c #5f5533",
"2 c #605633",
"3 c #635935",
"4 c #857747",
"5 c None",
/* pixels */
"555555555555555555555555",
"555555555555555555555555",
"555555555555555555555555",
"55555555555      5555555",
"5555555555#2+#;;  555555",
"5555555555 o>%&    55555",
"5555555555 --,    555555",
"5555555555 :*,   5555555",
"5555555555 >$*   5555555",
"5555555555-,+   55555555",
"5555555555<,=   55555555",
"5555555555:$,   55555555",
"555555555 >o3   55555555",
"555555555 > 3   55555555",
"5555555554<@,  555555555",
"555555555,2-   555555555",
"5555555552+-   555555555",
"55555555 :.*   555555555",
"55555555,XO.#  555555555",
"5555555         55555555",
"55555555       555555555",
"555555555     5555555555",
"555555555555555555555555",
"555555555555555555555555"
};
