/* XPM */
static char *load[] = {
/* columns rows colors chars-per-pixel */
"24 24 95 2",
"   c #000000",
".  c #080906",
"X  c #0a0a09",
"o  c #1f1f00",
"O  c #141513",
"+  c #191a15",
"@  c #1c1c1b",
"#  c #2a2a00",
"$  c #22221c",
"%  c #2a2a15",
"&  c #33331e",
"*  c #38381c",
"=  c #282724",
"-  c #2d2d24",
";  c #2b2c28",
":  c #313126",
">  c #333328",
",  c #363430",
"<  c #3d3f33",
"1  c #42413d",
"2  c #494b3d",
"3  c #484641",
"4  c #494943",
"5  c #555847",
"6  c #5a5954",
"7  c #605e57",
"8  c #65635c",
"9  c #6f725d",
"0  c #6d6b63",
"q  c #76746b",
"w  c #797d67",
"e  c #737370",
"r  c #7d8169",
"t  c #807d74",
"y  c #82856d",
"u  c #868973",
"i  c #898d74",
"p  c #8f9379",
"a  c #95997d",
"s  c #878883",
"d  c #888781",
"f  c #898883",
"g  c #8c8b89",
"h  c #908e86",
"j  c #95938c",
"k  c #9a9d81",
"l  c #9e9d95",
"z  c #9da285",
"x  c #a2a587",
"c  c #a2a688",
"v  c #a4a98a",
"b  c #a9ae8e",
"n  c #a6a998",
"m  c #aaad96",
"M  c #adb292",
"N  c #b1b595",
"B  c #b3b896",
"V  c #b5ba99",
"C  c #b8bc9b",
"Z  c #aba9a3",
"A  c #b0afa9",
"S  c #b3b5a5",
"D  c #b6b5af",
"F  c #b5b8a6",
"G  c #b9bca9",
"H  c #bab9b6",
"J  c #bbc09e",
"K  c #bec3a0",
"L  c #c1c6a3",
"P  c #c0c3af",
"I  c #c4c9a5",
"U  c #c6cba8",
"Y  c #c9ceaa",
"T  c #c1c3b2",
"R  c #c7cab7",
"E  c #cacdbb",
"W  c #ced3ae",
"Q  c #c8c7c2",
"!  c #d4d6c2",
"~  c #d6d9c5",
"^  c #d7dac9",
"/  c #dadcca",
"(  c #d5d4d1",
")  c #dbdcd3",
"_  c #dfdedc",
"`  c #dee1d0",
"'  c #e2e5cf",
"]  c #e3e6d2",
"[  c #e2e3d9",
"{  c #e7ead8",
"}  c #e8ebd9",
"|  c #e6e6e4",
" . c #ecece2",
".. c #f3f3eb",
"X. c None",
/* pixels */
"X.X.X.X.X.X.X.X.X.X.X.X.X.X.X.X.X.X.X.X.X.X.X.X.",
"X.X.X.X.X.X.X.X.X.X.X.X.X.X.X.X.X.X.X.X.X.X.X.X.",
"                      X.X.X.X.X.X.X.X.X.X.X.X.X.",
"    F ] ] ] ] ' i > O X.X.X.X.X.X.X.X.X.X.X.X.X.",
"- X ' W W W W W N - .   X.X.X.X.X.X.X.X.X.X.X.X.",
"$ l ' I I Y U Y Y 5 O % X.X.X.X.X.X.X.X.X.X.X.X.",
"$ E L B N B V J J y <                   X.X.X.X.",
"$ / N b x v b b b c x m S G G T R E G   @ X.X.X.",
"X / a z a a k k a z c v c c c c x k i   -   X.X.",
"  / y w O                                       ",
"  / w < _ } } } { } } } } } } } } { ] ) / / ; - ",
"  ~ w X ..W W W W W W W W W W       U L G M $ > ",
"  ~ 2 )  .W W W W W W N X X v   H . k . X 9 . > ",
"  ~ O ..Y Y Y Y U Y Y X f q X 4 l 3 . d $   X > ",
"  F e  .I L I I K K K X Q D l l l h j t 2   + : ",
"  n ) C V V N N N N M i . l l 6 7 f t q   . > > ",
"  l | M b v v v c c     3 l 6 3 = , l 0 4     - ",
"  } K a p i i u i i   g D l 6 $ . + | e 0 7   @ ",
">                       3 l f , O g _ 8 3       ",
"> > > > > > > > > > > @   S t D | ( j 8   X @ X.",
"> > > > > > > > > > >   D Z l t t q q 6 3     X.",
"& - : > > > > > > > >     6   3 q 3   4     X.X.",
"  # o o * * * * * * *           1           X.X.",
"X.X.X.X.X.X.X.X.X.X.X.X.X.X.X.      X.X.X.X.X.X."
};
