/* XPM */
static char *preference[] = {
/* columns rows colors chars-per-pixel */
"24 24 63 1",
"  c opaque",
". c #1c1c1b",
"X c gray18",
"o c #4e4e4d",
"O c #54524d",
"+ c #676560",
"@ c #726f6a",
"# c #79756f",
"$ c #767575",
"% c #787774",
"& c #797978",
"* c #586d84",
"= c #5b7189",
"- c #60768f",
"; c #607791",
": c #637b95",
"> c #6c85a1",
", c #7590ae",
"< c #86827d",
"1 c #88857d",
"2 c #818a95",
"3 c #9f9f9e",
"4 c #8193a9",
"5 c #8d98a5",
"6 c #849cb6",
"7 c #97a5b6",
"8 c #90a6be",
"9 c #a19d96",
"0 c #a5a19c",
"q c #a7a6a5",
"w c #aeaead",
"e c #a2aebc",
"r c #b9b4ab",
"t c #bebdbc",
"y c #99adc3",
"u c #9db6ce",
"i c #9db8d2",
"p c #a1b4c8",
"a c #a4bad0",
"s c #b0c6db",
"d c #c1bdb4",
"f c #c3c1bc",
"g c #c9c6be",
"h c #cbc7c0",
"j c #ccc8c1",
"k c gray80",
"l c #d0cdc6",
"z c #d3d1cb",
"x c #d9d6d1",
"c c #dbd8d3",
"v c #dddcdc",
"b c #c0d1e2",
"n c #d3dfea",
"m c #d7e2ed",
"M c #dfe7f0",
"N c #e3e2e1",
"B c #eae9e5",
"V c #ededec",
"C c #edf2f6",
"Z c #f0efed",
"A c #f3f2f2",
"S c #fefefe",
"D c None",
/* pixels */
"DDDDDDD    DDDDDDDDDDDDD",
"DDDD   rk1   DDDDDDD    ",
"DDDD    ggr   DDDDD     ",
"DDD      Ng   DDDD  S$  ",
"DD      XAg   DDD  Skw  ",
"DD  z.  hZr#   DD  vw   ",
"DD  0jjBArrr   D  V     ",
"DD   9djgccr1    S      ",
"DD        BAf1  k       ",
"DD         ZAj w       D",
"DDD         Z w      DDD",
"DDDD         w +O   DDDD",
"DDDDDDD     w &&<%   DDD",
"DDDDDD  ,ay    9tr<   DD",
"DDDDD  ,nei;    NVh1   D",
"DDDD  6m5;i;     VAg1   ",
"DDD  yM4*i,=      AVq@  ",
"DD  pC4-i,=        v$ow ",
"DD yA7-i,=          tww ",
"DD sC2i,=      D        ",
"DD >iby*      DDD       ",
"DD  >>:      DDDDD      ",
"DD           DDDDDDDDDDD",
"DD          DDDDDDDDDDDD"
};
