/* XPM */
static char *reset[] = {
/* columns rows colors chars-per-pixel */
"24 24 63 1",
"  c opaque",
". c #0d110c",
"X c #172116",
"o c #283926",
"O c #2b3a29",
"+ c #3a4e37",
"@ c #4e6a4a",
"# c #516e4c",
"$ c #51714e",
"% c #557452",
"& c #5b7b57",
"* c #5e7f5a",
"= c #5e8059",
"- c #61845c",
"; c #63885e",
": c #698f63",
"> c #6a9165",
", c #6e9568",
"< c #70976a",
"1 c #729a6c",
"2 c #759d70",
"3 c #76a070",
"4 c #79a573",
"5 c #7ea778",
"6 c #7eab77",
"7 c #7fa879",
"8 c #80a97b",
"9 c #88af82",
"0 c #8faf8b",
"q c #8ab285",
"w c #8cb887",
"e c #90b68b",
"r c #96b991",
"t c #9bbd96",
"y c #9ac195",
"u c #a6c1a3",
"i c #a6caa1",
"p c #afcbab",
"a c #aed5a9",
"s c #b3d6ae",
"d c #b5d2b1",
"f c #b9d5b4",
"g c #bcd6b9",
"h c #bcdab9",
"j c #bbe1b6",
"k c #c2dbbf",
"l c #c3e3bf",
"z c #c6e2c3",
"x c #c6eac1",
"c c #cae3c6",
"v c #cde5c9",
"b c #c9ecc4",
"n c #ceebca",
"m c #d0eacb",
"M c #d4ebd0",
"N c #d7f0d3",
"B c #dbf4d6",
"V c #def7d9",
"C c #e1f7dd",
"Z c #effdee",
"A c #f0ffee",
"S c #f4fff3",
"D c None",
/* pixels */
"DDDDDDD    DDDDDDDDDDDDD",
"DDDDDD      DDDDDDDDDDDD",
"DDDDD   A    DDDDDDDDDDD",
"DDD     cS    DDD   DDDD",
"DD .1icccvZ    D      DD",
"D XqccccvvvS     5>    D",
"  1cccvvvmMMa     t;    ",
" Oicw<<1133%       p    ",
" 6z4<<1114$        d-   ",
" iy<#   1#         f4   ",
" z,=    $          d8   ",
" k>          b    id8   ",
" e4         bV   shp1   ",
" &q        jBCBNnzg5;   ",
"  u       svmcxlhdr3+   ",
"  *0     yzcvvvzkq>%    ",
"   ;1     11111,,,=     ",
"           1<::>*@      ",
"D           ,:         D",
"DD      D   o,        DD",
"DDD    DDD           DDD",
"DDDDDDDDDDD         DDDD",
"DDDDDDDDDDDD      DDDDDD",
"DDDDDDDDDDDDD    DDDDDDD"
};
