/* XPM */
static char *send[] = {
/* columns rows colors chars-per-pixel */
"24 24 122 2",
"   c #000000",
".  c #090909",
"X  c #120b03",
"o  c #191307",
"O  c #1f1b15",
"+  c #1b1b1b",
"@  c #20190d",
"#  c #261f13",
"$  c #242014",
"%  c #292216",
"&  c #2b251c",
"*  c #332d1f",
"=  c #2c2823",
"-  c #373023",
";  c #3b3121",
":  c #3c3529",
">  c #403524",
",  c #443927",
"<  c #443b2d",
"1  c #493c2c",
"2  c #453c30",
"3  c #403e39",
"4  c #4c3f30",
"5  c #474035",
"6  c #4d4132",
"7  c #4d463d",
"8  c #514432",
"9  c #554a39",
"0  c #584a36",
"q  c #5b4d3a",
"w  c #5d513d",
"e  c gray30",
"r  c #544e43",
"t  c #5b5143",
"y  c #5b564a",
"u  c #645742",
"i  c #695a46",
"p  c #6b5d49",
"a  c #665f52",
"s  c #6f624c",
"d  c #676459",
"f  c #71624b",
"g  c #79674d",
"h  c #706554",
"j  c #756953",
"k  c #786650",
"l  c #7b6a52",
"z  c #74706d",
"x  c #7b7263",
"c  c #7d7769",
"v  c #867156",
"b  c #83735b",
"n  c #8a775d",
"m  c #8d795d",
"M  c #837665",
"N  c #807c7a",
"B  c #927e63",
"V  c #8c8471",
"C  c #8c8579",
"Z  c #978061",
"A  c #92846d",
"S  c #9a8365",
"D  c #9c876b",
"F  c #938672",
"G  c #a48a6a",
"H  c #a69072",
"J  c #a29279",
"K  c #ab9373",
"L  c #b19977",
"P  c #bba17f",
"I  c #9b9185",
"U  c #9f9a91",
"Y  c #ad9b83",
"T  c #a49d90",
"R  c #a29f99",
"E  c #b19d82",
"W  c #b09d88",
"Q  c #afa496",
"!  c #b6a38a",
"~  c #b8a282",
"^  c #baa68d",
"/  c #b3a591",
"(  c #baaa95",
")  c #bdaf9b",
"_  c #bdb09c",
"`  c #aeaba7",
"'  c #b7b0a6",
"]  c #bfbcb8",
"[  c #c1a480",
"{  c #c2aa8a",
"}  c #c0af99",
"|  c #ceb18a",
" . c #cab293",
".. c #c9b59d",
"X. c #ceb89b",
"o. c #d3b58c",
"O. c #c3b6a6",
"+. c #c4baac",
"@. c #c2beb5",
"#. c #cec4b6",
"$. c #ccc5bc",
"%. c #d3c2ae",
"&. c #d9c3a7",
"*. c #d1c7ba",
"=. c #d2c9bc",
"-. c #dbcab4",
";. c #dbcdbb",
":. c #ded0bf",
">. c #e2cbaf",
",. c #cfc9c2",
"<. c #d2ccc1",
"1. c #d2cec9",
"2. c #d7d1cc",
"3. c #e2d6c7",
"4. c #e1dbd3",
"5. c #ede0cd",
"6. c #e7e4dc",
"7. c #f0e6d8",
"8. c #ede9e4",
"9. c #f2f0ed",
"0. c #fcfcfb",
"q. c None",
/* pixels */
"q.q.q.q.q.q.q.q.q.q.q.q.q.q.q.q.q.q.q.q.q.q.q.q.",
"q.q.q.q.q.q.q.q.q.q.q.q.q.q.q.q.q.q.q.q.q.q.q.q.",
"q.q.                      q.q.          q.q.q.q.",
"q.q.  0.8.8.9.=.=.=.=./     X 9 C d r +   q.q.q.",
"q.q.  8.*.*.4.l l l l i   % c ' ` C c d .   q.q.",
"q.q.  8.*.*.4.l l l l & & C ,.@.: $ - u $   q.q.",
"q.q.  8.*.*.4.l l k O = C 1.@.y % : < 9 0     q.",
"q.q.  8.*.*.4.l k = e R 4.,.c * 1 9 9 w f o   q.",
"q.q.  8.*.*.4.l 3 z @.8.,.T t ; q p s f f 6   q.",
"q.q.  8.*.*.4.l 3 1.6.$.Q I < 0 k b b b f u   q.",
"q.q.  8.*.*.4.l : <.+./ +.V < f n B B B l h   q.",
"q.q.  8.*.*.4.l 7 O.} ) #.A t R A D D D n x   q.",
"q.q.  8.*.*.4.l 7 ! ( L *.F 5 N n H H H B M   q.",
"q.q.  8.*.*.4.l < K L K ;.Y 0 > B L L L m M   q.",
"q.q.  8.*.*.4.l : g B B ;.^ g B L L [ L J p   q.",
"q.q.  8.*.*.4.l 4 4 g v :.X.v ^ 3.-.-.X.J u   q.",
"q.q.  8.=.*.4.l k ; 1 B { &.S K | 4.7.3.W ;   q.",
"q.q.  8.*.*.4.l l l   , G ~ ! B [ >.5...B @   q.",
"q.q.  8.*.*.4.l l l i = # m  .^ G | o.W 2   q.q.",
"q.q.  8.*.*.4.l l l l u   X u ~ &.-.} j     q.q.",
"q.q.  _ ( ( O.i i i i p       > S S q     q.q.q.",
"q.q.                      q.            q.q.q.q.",
"q.q.q.q.q.q.q.q.q.q.q.q.q.q.q.q.q.q.q.q.q.q.q.q.",
"q.q.q.q.q.q.q.q.q.q.q.q.q.q.q.q.q.q.q.q.q.q.q.q."
};
