/* XPM */
static char * Screenshot_xpm[] = {
"83 24 627 2",
"  	c #FFFFFF",
". 	c #FFFEFE",
"+ 	c #FFFAF6",
"@ 	c #FFFBF7",
"# 	c #FFF0E1",
"$ 	c #FFF4E5",
"% 	c #FF972C",
"& 	c #FF9F3F",
"* 	c #FFA042",
"= 	c #FF9F40",
"- 	c #FF9B35",
"; 	c #FFF9EF",
"> 	c #FFF1E4",
", 	c #FFEAD6",
"' 	c #FFEFD7",
") 	c #FFAB55",
"! 	c #FFCD80",
"~ 	c #FFECCA",
"{ 	c #FFFDF6",
"] 	c #FFFFFA",
"^ 	c #FFEDCD",
"/ 	c #FFCC80",
"( 	c #FFB366",
"_ 	c #FFEFD9",
": 	c #FFEEDF",
"< 	c #FFB464",
"[ 	c #FFCB82",
"} 	c #FFF6E1",
"| 	c #FFFBF4",
"1 	c #FFF8EB",
"2 	c #FFF7E9",
"3 	c #FFF7EA",
"4 	c #FFF8EA",
"5 	c #FFF9EE",
"6 	c #FFFBF3",
"7 	c #FFCB85",
"8 	c #FFB972",
"9 	c #FFF1E3",
"0 	c #FFEAD7",
"a 	c #FFB76A",
"b 	c #FFDEB0",
"c 	c #FFF6E4",
"d 	c #FFF4E1",
"e 	c #FFF3DF",
"f 	c #FFF6E5",
"g 	c #FFDCAE",
"h 	c #FFB870",
"i 	c #FFF4E9",
"j 	c #FFEBD8",
"k 	c #FFAE56",
"l 	c #FFD79C",
"m 	c #FFF1D8",
"n 	c #FFF0D5",
"o 	c #FFEFD4",
"p 	c #FFF2D9",
"q 	c #FFDBA8",
"r 	c #FFB163",
"s 	c #FFF4EA",
"t 	c #FEFFFF",
"u 	c #FFEBCD",
"v 	c #FFBA54",
"w 	c #FFEDCB",
"x 	c #FFECC9",
"y 	c #FEECC9",
"z 	c #FFEECA",
"A 	c #FFF5CE",
"B 	c #FFF8CF",
"C 	c #FFF7CF",
"D 	c #FFF6CE",
"E 	c #FFF1CC",
"F 	c #FFF0CB",
"G 	c #FFF0D1",
"H 	c #FFBB58",
"I 	c #FFF9F0",
"J 	c #FE9D32",
"K 	c #FDD389",
"L 	c #FEEBC5",
"M 	c #FEE9C0",
"N 	c #FFEBC1",
"O 	c #DCD1B4",
"P 	c #40617D",
"Q 	c #043667",
"R 	c #073869",
"S 	c #063868",
"T 	c #2D5376",
"U 	c #9CA39D",
"V 	c #FDE9C0",
"W 	c #FFEAC1",
"X 	c #FDE9BF",
"Y 	c #A8ABA1",
"Z 	c #F9E6BE",
"` 	c #FDD894",
" .	c #FE9C36",
"..	c #FFF0DB",
"+.	c #FEAB29",
"@.	c #FDD289",
"#.	c #FEE8BE",
"$.	c #FEE6B9",
"%.	c #FFEBBB",
"&.	c #C1BBA5",
"*.	c #204970",
"=.	c #17436D",
"-.	c #45637C",
";.	c #49667E",
">.	c #14406C",
",.	c #033567",
"'.	c #7F8C8F",
").	c #FFEFBD",
"!.	c #FEE7B9",
"~.	c #FCE5B9",
"{.	c #FCE5B8",
"].	c #FDE6B9",
"^.	c #FBE5B8",
"/.	c #FFE9BA",
"(.	c #EBD9B3",
"_.	c #3F607B",
":.	c #667B87",
"<.	c #F9E3B7",
"[.	c #FDD591",
"}.	c #FEAB2A",
"|.	c #FFF8F0",
"1.	c #FE901B",
"2.	c #FEB641",
"3.	c #FDC870",
"4.	c #FEE3AE",
"5.	c #FEE6B3",
"6.	c #FEE5B2",
"7.	c #FEE5B3",
"8.	c #FDE5B2",
"9.	c #FFEBB5",
"0.	c #A4A697",
"a.	c #002F64",
"b.	c #959C93",
"c.	c #FFEAB5",
"d.	c #FFEEB7",
"e.	c #E5D4AB",
"f.	c #083868",
"g.	c #2C5273",
"h.	c #E8D6AC",
"i.	c #FFE9B4",
"j.	c #F8E1B1",
"k.	c #E4D3AB",
"l.	c #A0A496",
"m.	c #9DA295",
"n.	c #D1C6A5",
"o.	c #F2DDAF",
"p.	c #FFE7B3",
"q.	c #E6D5AC",
"r.	c #D8CBA8",
"s.	c #EDDAAE",
"t.	c #CBC2A4",
"u.	c #9EA295",
"v.	c #C9C1A3",
"w.	c #FBE3B2",
"x.	c #FFE6B3",
"y.	c #A3A697",
"z.	c #9CA195",
"A.	c #CFC5A5",
"B.	c #F6E0B1",
"C.	c #818E8D",
"D.	c #003165",
"E.	c #7A898C",
"F.	c #E2D2AA",
"G.	c #E9D7AD",
"H.	c #BFB9A0",
"I.	c #969D93",
"J.	c #F5DFB0",
"K.	c #FEE6B5",
"L.	c #FEC972",
"M.	c #FDB642",
"N.	c #FE9327",
"O.	c #FE9628",
"P.	c #FDB847",
"Q.	c #FEBA4F",
"R.	c #FED183",
"S.	c #FEE3AD",
"T.	c #FFE7AF",
"U.	c #7F8B89",
"V.	c #00205E",
"W.	c #BAB49A",
"X.	c #FFE4AD",
"Y.	c #FDE3AD",
"Z.	c #FAE0AC",
"`.	c #5F7580",
" +	c #17426C",
".+	c #C1B99C",
"++	c #FFE5AE",
"@+	c #979C91",
"#+	c #063767",
"$+	c #17426B",
"%+	c #1D476D",
"&+	c #003064",
"*+	c #718185",
"=+	c #FBE1AC",
"-+	c #FFEBB0",
";+	c #426178",
">+	c #001B5C",
",+	c #536D7E",
"'+	c #274D70",
")+	c #053667",
"!+	c #BBB49A",
"~+	c #FFECB1",
"{+	c #A2A494",
"]+	c #19446C",
"^+	c #002A62",
"/+	c #8F968E",
"(+	c #FFEDB1",
"_+	c #94998F",
":+	c #002E63",
"<+	c #083867",
"[+	c #687B82",
"}+	c #E2D0A5",
"|+	c #406078",
"1+	c #1A456C",
"2+	c #7A8888",
"3+	c #F4DCAA",
"4+	c #FEE4B0",
"5+	c #FED48B",
"6+	c #FEBC53",
"7+	c #FDB746",
"8+	c #FE9A33",
"9+	c #FE9629",
"0+	c #FDB543",
"a+	c #FDBA4E",
"b+	c #FDCE7D",
"c+	c #FDDFA5",
"d+	c #FDE1AA",
"e+	c #FEE0A8",
"f+	c #FEE0A7",
"g+	c #FFE1A8",
"h+	c #EDD4A3",
"i+	c #576E7C",
"j+	c #0D3B69",
"k+	c #D0C19C",
"l+	c #FFE2A8",
"m+	c #FDE0A7",
"n+	c #F8DCA6",
"o+	c #61757F",
"p+	c #15416B",
"q+	c #C7BB99",
"r+	c #B6AF95",
"s+	c #3C5C74",
"t+	c #CABD9A",
"u+	c #D9C79E",
"v+	c #536C7B",
"w+	c #093968",
"x+	c #B5AE95",
"y+	c #EED5A3",
"z+	c #395A74",
"A+	c #6C7C81",
"B+	c #DAC89E",
"C+	c #758384",
"D+	c #003265",
"E+	c #868E88",
"F+	c #FFEBAC",
"G+	c #9A9C8D",
"H+	c #6F7E81",
"I+	c #E0CC9F",
"J+	c #C2B797",
"K+	c #002D63",
"L+	c #244B6F",
"M+	c #FFEBAB",
"N+	c #CEBF9B",
"O+	c #3A5B75",
"P+	c #003266",
"Q+	c #A2A28F",
"R+	c #EFD6A3",
"S+	c #4B6779",
"T+	c #013466",
"U+	c #ABA791",
"V+	c #E6D0A1",
"W+	c #476478",
"X+	c #013366",
"Y+	c #D7C69D",
"Z+	c #FDE0A8",
"`+	c #FDD288",
" @	c #FDBD55",
".@	c #FEB540",
"+@	c #FEB33F",
"@@	c #FEB23C",
"#@	c #FEB542",
"$@	c #FEC362",
"%@	c #FED386",
"&@	c #FDDEA1",
"*@	c #FDE2A8",
"=@	c #FDE0A5",
"-@	c #FEE0A4",
";@	c #FFE2A5",
">@	c #D6C59A",
",@	c #2D5270",
"'@	c #3C5B75",
")@	c #E1CC9D",
"!@	c #FFE1A4",
"~@	c #FDE0A4",
"{@	c #FDDFA3",
"]@	c #2A4F70",
"^@	c #274E70",
"/@	c #DDCA9C",
"(@	c #687A7F",
"_@	c #002C63",
":@	c #C8BC97",
"<@	c #FFE3A5",
"[@	c #A7A58E",
"}@	c #002F65",
"|@	c #91968A",
"1@	c #CCBE97",
"2@	c #1C466C",
"3@	c #355773",
"4@	c #F4D9A2",
"5@	c #6F7F80",
"6@	c #0B3A69",
"7@	c #ADA991",
"8@	c #FFEAA7",
"9@	c #D6C499",
"0@	c #92978A",
"a@	c #667980",
"b@	c #536B7B",
"c@	c #456277",
"d@	c #FFEEA9",
"e@	c #DFCB9C",
"f@	c #375873",
"g@	c #315472",
"h@	c #EFD6A1",
"i@	c #EED6A0",
"j@	c #0E3C69",
"k@	c #93978B",
"l@	c #96998B",
"m@	c #3C5C75",
"n@	c #00195D",
"o@	c #CDBF98",
"p@	c #FDE1A7",
"q@	c #FDE0A3",
"r@	c #FED48A",
"s@	c #FEC467",
"t@	c #FEB746",
"u@	c #FEB23B",
"v@	c #FEB53F",
"w@	c #FE9933",
"x@	c #FEFBF7",
"y@	c #FF9627",
"z@	c #FFB33A",
"A@	c #FFB139",
"B@	c #FFB138",
"C@	c #FFB037",
"D@	c #FFB644",
"E@	c #FEBB51",
"F@	c #FEC567",
"G@	c #FED181",
"H@	c #FDD78F",
"I@	c #FDD892",
"J@	c #FDD891",
"K@	c #FFDA92",
"L@	c #C4B287",
"M@	c #0B3A67",
"N@	c #617277",
"O@	c #EFCE8F",
"P@	c #FFD991",
"Q@	c #FFDD90",
"R@	c #ACA281",
"S@	c #002E65",
"T@	c #4C6676",
"U@	c #F7D390",
"V@	c #4A6373",
"W@	c #143F68",
"X@	c #E3C68C",
"Y@	c #FED891",
"Z@	c #FDD791",
"`@	c #8C8D7B",
" #	c #9F9B82",
".#	c #A8A082",
"+#	c #82887D",
"@#	c #F8D490",
"##	c #2F516D",
"$#	c #1B456A",
"%#	c #DAC18C",
"&#	c #C6B488",
"*#	c #2F526F",
"=#	c #20496E",
"-#	c #767F78",
";#	c #5C6D71",
">#	c #80867C",
",#	c #FFE394",
"'#	c #1A4469",
")#	c #5C6F76",
"!#	c #F4D190",
"~#	c #C7B589",
"{#	c #003065",
"]#	c #21486B",
"^#	c #637579",
"/#	c #5F7278",
"(#	c #5D7075",
"_#	c #476273",
":#	c #DEC48C",
"<#	c #FDD893",
"[#	c #FED07F",
"}#	c #FEC96E",
"|#	c #FEBC51",
"1#	c #FFB038",
"2#	c #FF9933",
"3#	c #FF9526",
"4#	c #FFAF31",
"5#	c #FFAF34",
"6#	c #FFAF33",
"7#	c #FEAF33",
"8#	c #FFAE32",
"9#	c #FFB036",
"0#	c #FEB33D",
"a#	c #FEB33E",
"b#	c #FFB63D",
"c#	c #B38D4A",
"d#	c #00246B",
"e#	c #9F824A",
"f#	c #FFBE39",
"g#	c #FFB73C",
"h#	c #AD8C4E",
"i#	c #0B3B68",
"j#	c #0C3863",
"k#	c #CC9842",
"l#	c #FFB43D",
"m#	c #565E57",
"n#	c #023567",
"o#	c #DBA143",
"p#	c #F9B03E",
"q#	c #0F3C67",
"r#	c #1E4260",
"s#	c #E6A63F",
"t#	c #847652",
"u#	c #C59645",
"v#	c #FFB53D",
"w#	c #002F68",
"x#	c #2C495E",
"y#	c #FFBE38",
"z#	c #887851",
"A#	c #B88D43",
"B#	c #FFBA38",
"C#	c #535E5B",
"D#	c #043565",
"E#	c #B18B49",
"F#	c #FFBB3B",
"G#	c #A5874D",
"H#	c #907B4E",
"I#	c #E1A341",
"J#	c #002E67",
"K#	c #3F535B",
"L#	c #FFB737",
"M#	c #E9A73D",
"N#	c #BB9046",
"O#	c #DCA13F",
"P#	c #FDB23D",
"Q#	c #FEB43E",
"R#	c #FEB23A",
"S#	c #FFB137",
"T#	c #FFAF30",
"U#	c #FF9932",
"V#	c #FF921F",
"W#	c #FFAC28",
"X#	c #FFAC2D",
"Y#	c #FEAC2D",
"Z#	c #F7A82E",
"`#	c #7F6F49",
" $	c #002B69",
".$	c #043465",
"+$	c #083664",
"@$	c #073664",
"#$	c #013365",
"$$	c #AF853E",
"%$	c #FFAF2B",
"&$	c #FFB02A",
"*$	c #917845",
"=$	c #033465",
"-$	c #28465C",
";$	c #877347",
">$	c #25445D",
",$	c #023465",
"'$	c #867348",
")$	c #FBAA2D",
"!$	c #555B52",
"~$	c #043564",
"{$	c #D79936",
"]$	c #FFAE2C",
"^$	c #C18F3A",
"/$	c #575C52",
"($	c #FFB827",
"_$	c #937845",
":$	c #002F67",
"<$	c #435357",
"[$	c #5B5E51",
"}$	c #003365",
"|$	c #D49836",
"1$	c #FFB22A",
"2$	c #8F7746",
"3$	c #00276B",
"4$	c #515953",
"5$	c #A68240",
"6$	c #FFAC2C",
"7$	c #425257",
"8$	c #5C5E51",
"9$	c #565C52",
"0$	c #8A7447",
"a$	c #FAA92E",
"b$	c #FFAC29",
"c$	c #FF962D",
"d$	c #FFF3E9",
"e$	c #FF9520",
"f$	c #FFAB26",
"g$	c #FFA927",
"h$	c #FFAA27",
"i$	c #F3A42A",
"j$	c #8A7443",
"k$	c #415155",
"l$	c #485553",
"m$	c #455354",
"n$	c #847145",
"o$	c #EAA02D",
"p$	c #FEA927",
"q$	c #FFAB27",
"r$	c #A27E3E",
"s$	c #26445C",
"t$	c #053564",
"u$	c #2A465B",
"v$	c #9B7B40",
"w$	c #FFB024",
"x$	c #E69E2D",
"y$	c #716749",
"z$	c #70674A",
"A$	c #ECA12C",
"B$	c #B1863A",
"C$	c #495553",
"D$	c #AF853B",
"E$	c #FFAE25",
"F$	c #EDA12C",
"G$	c #62604E",
"H$	c #0E3962",
"I$	c #796B48",
"J$	c #897344",
"K$	c #4D5752",
"L$	c #E19C2F",
"M$	c #FFAD25",
"N$	c #D19432",
"O$	c #425155",
"P$	c #003166",
"Q$	c #857145",
"R$	c #FBA828",
"S$	c #EFA32B",
"T$	c #565B51",
"U$	c #0B3763",
"V$	c #173E5F",
"W$	c #957941",
"X$	c #F8A729",
"Y$	c #FF9424",
"Z$	c #FFFEFD",
"`$	c #FFF3E8",
" %	c #FFA038",
".%	c #FFA826",
"+%	c #FFAB2B",
"@%	c #FEAB2B",
"#%	c #FFAE29",
"$%	c #FFB128",
"%%	c #FFB028",
"&%	c #FFAF29",
"*%	c #FFAC2A",
"=%	c #FFB127",
"-%	c #FFB227",
";%	c #FFAF28",
">%	c #FFAB2A",
",%	c #FFAD2A",
"'%	c #FFAD29",
")%	c #FFB327",
"!%	c #FFA725",
"~%	c #FFA13F",
"{%	c #FFFBF8",
"]%	c #FFE8D4",
"^%	c #FF9926",
"/%	c #FFB94A",
"(%	c #FFB84C",
"_%	c #FFB84B",
":%	c #FFB94C",
"<%	c #FFB949",
"[%	c #FF9422",
"}%	c #FFF7F0",
"|%	c #FFF0E3",
"1%	c #FFB05A",
"2%	c #FFB245",
"3%	c #FFC76F",
"4%	c #FFC66F",
"5%	c #FFC66E",
"6%	c #FFC670",
"7%	c #FFC76D",
"8%	c #FFAD3D",
"9%	c #FFB667",
"0%	c #FFB15E",
"a%	c #FFBB5B",
"b%	c #FFD594",
"c%	c #FFD492",
"d%	c #FFD390",
"e%	c #FFD491",
"f%	c #FFB44F",
"g%	c #FFB96F",
"h%	c #FFF9F5",
"i%	c #FFF5ED",
"j%	c #FFAD58",
"k%	c #FFB143",
"l%	c #FFDEA8",
"m%	c #FFE5BC",
"n%	c #FFE3B8",
"o%	c #FFE1B4",
"p%	c #FFE1B3",
"q%	c #FFDA9E",
"r%	c #FFAB3B",
"s%	c #FFB76D",
"t%	c #FFF9F4",
"u%	c #FFF4EB",
"v%	c #FFA03F",
"w%	c #FFBF5F",
"x%	c #FFDDA6",
"y%	c #FFEED3",
"z%	c #FFF5E3",
"A%	c #FFEDD0",
"B%	c #FFDAA0",
"C%	c #FFA851",
"D%	c #FFF8EE",
"E%	c #FFFBF6",
"F%	c #FF962C",
"G%	c #FF9C38",
"H%	c #FF9C39",
"I%	c #FF9B38",
"J%	c #FF9A34",
"            .     + @ @ @ @ @ @ @ @ @ @ @ @ @ @ @ @ @ @ @ @ @ @ @ @ @ @ @ @ @ @ @ @ @ @ @ @ @ @ @ @ @ @ @ @ @ @ @ @ @ @ @ @ @ @ @ @ @ @ @ @ @ @ @ @ @     .           ",
"        .     # $ % & * * * * * * * * * * * * * * * * * * * * * * * * * * * * * * * * * * * * * * * * * * * * * * * * * * * * * * * * * * * * * * = - ; >     .       ",
"      .   , ' ) ! ~ {                                                                                                                             ] ^ / ( _ :   .     ",
"    .   , < [ } | ; 1 2 3 3 3 3 3 3 3 3 3 3 3 3 3 3 3 3 3 3 3 3 3 3 3 3 3 3 3 3 3 3 3 3 3 3 3 3 3 3 3 3 3 3 3 3 3 3 3 3 3 3 3 3 3 3 3 3 3 3 3 3 2 4 5 6 } 7 8 9   .   ",
"  .   0 a b c d e e e e e e e e e e e e e e e e e e e e e e e e e e e e e e e e e e e e e e e e e e e e e e e e e e e e e e e e e e e e e e e e e e e e d f g h i   . ",
"    j k l m n o o o o o o o o o o o o o o o o o o o o o o o o o o o o o o o o o o o o o o o o o o o o o o o o o o o o o o o o o o o o o o o o o o o o o o n p q r s   ",
". t u v w ~ x x x x x x x x x x x x x y z A B C C D E x y x x x x x x x x x x x x x x x x x x x x x x x x x y x F x x x x x x x x x x x x x x x x x x x x x ~ G H I t ",
"  > J K L M M M M M M M M M M M M M M N O P Q R S T U V M M M M M M M M M M M M M M M M M M M M M M M M M V W X Y Z M M M M M M M M M M M M M M M M M M M M M L `  .@ ",
"t ..+.@.#.$.$.$.$.$.$.$.$.$.$.$.$.$.$.%.&.*.=.-.;.>.,.'.).$.$.!.~.{.].!.].].!.!.!.].^.].!.].$.!.~.^.].!.]./.(._.:.<.$.!.].^.].!.$.].$.$.$.$.$.$.$.$.$.$.$.$.$.#.[.}.|.",
"@ 1.2.3.4.5.6.7.7.7.7.7.7.7.7.7.7.7.8.9.0.a.b.c.d.e.f.g.h.i.j.k.l.m.n.o.p.p.q.r.s.t.u.v.w.x.j.q.y.z.A.B.p.j.C.D.E.F.x.G.H.I.H.J.7.7.7.7.7.7.7.7.7.7.7.7.7.6.7.K.L.M.N.",
"@ O.P.Q.R.4.4.S.S.S.S.S.S.S.S.S.S.S.S.T.U.V.W.X.Y.Z.`. +.+++@+#+$+%+&+*+=+-+;+>+,+'+)+f.!+~+{+f.]+$+^+/+(+_+:+a.<+[+}+|+)+1+:+2+3+S.S.S.S.S.S.S.S.S.S.S.S.4.4+5+6+7+8+",
"@ 9+P.0+a+b+c+d+e+f+f+f+f+f+f+f+f+f+g+h+i+j+k+l+m+n+o+p+q+r+#+s+t+u+v+w+x+y+z+a.A+B+C+D+E+F+G+H+I+J+K+L+M+N+O+P+Q+R+S+T+U+V+W+X+Y+g+f+f+f+f+f+f+f+f+f+e+d+Z+`+ @0+P.8+",
"@ O..@+@@@#@$@%@&@*@=@-@-@-@-@-@-@-@;@>@,@'@)@!@~@{@]@^@/@(@_@:@<@;@[@}@|@1@2@3@4@<@5@6@7@8@9@0@a@b@D.c@d@e@f@g@h@i@a.j@k@l@m@n@o@!@-@-@-@-@-@-@-@=@p@q@r@s@t@u@+@v@w@",
"x@y@z@A@A@B@C@D@E@F@G@H@I@J@J@J@J@J@K@L@M@N@O@P@Q@R@S@T@U@V@W@X@Y@Z@`@T+ #.#D++#@#J@##$#%#&#*#=#-#;#X+>#,#L@'#)#!#~#{#]#^#/#(#_#:#Y@J@J@J@J@J@J@<#[#}#|#t@1#B@A@A@z@2#",
"@ 3#4#5#6#5#6#7#8#9#u@0#a#a#a#a#a#a#b#c#d#e#f#g#h#i#j#k#l#m#n#o#g#p#q#r#s#t#d#u#l#v#w#x#y#z#d#A#B#C#D#E#F#G#w#H#v#I#J#K#L#M#N#O#P#a#a#a#a#a#a#a#Q#R#S#8#6#7#5#6#5#T#U#",
"@ V#W#X#X#X#X#X#X#Y#X#X#X#X#X#X#X#X#Z#`# $.$+$@$#$P+$$%$&$*$=$-$;$>$,$'$)$!$~${$]$^$J#/$($_$:$<$[$}$+$|$1$2$3$4$5$6$7$,$8$9$:$0$a$X#X#X#X#X#X#X#X#X#Y#X#X#X#X#X#X#b$c$",
"  d$e$f$g$g$g$g$g$g$g$g$g$g$g$g$g$h$i$j$k$l$l$m$n$o$f$p$h$q$r$s$t$u$v$w$x$y$z$A$f$B$C$D$E$F$G$H$I$J$K$L$M$N$O$P$Q$R$S$T$U$V$W$X$h$p$g$g$g$g$g$g$g$g$g$g$g$g$g$g$f$Y$Z$",
"  `$ %.%+%+%+%+%+%+%+%+%+%+%+%+%+%@%+%#%$%%%%%%%&%*%@%+%@%+%#%=%-%=%#%@%*%;%;%>%@%,%%%'%@%>%%%-%&%#%%%*%@%*%$%)%#%+%>%%%-%-%#%+%@%+%+%+%+%+%+%+%+%+%+%+%+%+%+%+%!%~%{%",
".   ]%^%/%(%_%_%_%_%_%_%_%_%_%_%_%_%_%_%_%_%_%_%_%_%_%_%_%_%_%_%_%_%_%_%_%_%_%_%_%_%_%_%_%_%_%_%_%_%_%_%_%_%_%_%_%_%_%_%_%_%_%_%_%_%_%_%_%_%_%_%_%_%_%_%_%_%:%<%[%}%  ",
"    |%1%2%3%4%5%5%5%5%5%5%5%5%5%5%5%5%5%5%5%5%5%5%5%5%5%5%5%5%5%5%5%5%5%5%5%5%5%5%5%5%5%5%5%5%5%5%5%5%5%5%5%5%5%5%5%5%5%5%5%5%5%5%5%5%5%5%5%5%5%5%5%5%5%5%6%7%8%9%}%  ",
"  .   d$0%a%b%c%d%d%d%d%d%d%d%d%d%d%d%d%d%d%d%d%d%d%d%d%d%d%d%d%d%d%d%d%d%d%d%d%d%d%d%d%d%d%d%d%d%d%d%d%d%d%d%d%d%d%d%d%d%d%d%d%d%d%d%d%d%d%d%d%d%d%d%d%b%e%f%g%h%  . ",
"    .   i%j%k%l%m%n%o%p%p%p%p%p%p%p%p%p%p%p%p%p%p%p%p%p%p%p%p%p%p%p%p%p%p%p%p%p%p%p%p%p%p%p%p%p%p%p%p%p%p%p%p%p%p%p%p%p%p%p%p%p%p%p%p%p%p%p%p%p%p%o%n%m%q%r%s%t%  .   ",
"      .   u%5 v%w%x%y%z%d d d d d d d d d d d d d d d d d d d d d d d d d d d d d d d d d d d d d d d d d d d d d d d d d d d d d d d d d d d d z%A%B%H C%D%}%  .     ",
"        .     @ E%F%G%H%H%H%H%H%H%H%H%H%H%H%H%H%H%H%H%H%H%H%H%H%H%H%H%H%H%H%H%H%H%H%H%H%H%H%H%H%H%H%H%H%H%H%H%H%H%H%H%H%H%H%H%H%H%H%H%H%H%H%H%H%H%I%J%  {%    .       "};
