/* XPM */
static char *save16[] = {
/* columns rows colors chars-per-pixel */
"16 16 62 1",
"  c opaque",
". c #112835",
"X c #122c3b",
"o c #193041",
"O c #213648",
"+ c #2d3949",
"@ c #2e4454",
"# c #33495a",
"$ c #3e4f5c",
"% c #4a6072",
"& c #59636d",
"* c #54697c",
"= c gray43",
"- c gray48",
"; c #586d80",
": c #5a7082",
"> c #5f7989",
", c #6b7882",
"< c #7d97ac",
"1 c #7e99ad",
"2 c #c77466",
"3 c #c77568",
"4 c #c87668",
"5 c #b7877e",
"6 c #cd867a",
"7 c #868686",
"8 c #80868d",
"9 c #909090",
"0 c #9c9d9d",
"q c #819aae",
"w c #839eb2",
"e c #84a0b5",
"r c #86a4b9",
"t c #89a6bc",
"y c #8ca8bd",
"u c #97a5b0",
"i c #9ea9b0",
"p c gray63",
"a c #a8b1bd",
"s c #b2b2b2",
"d c #bcbcbc",
"f c #a1b6c4",
"g c #aebfcd",
"h c #bfcbd6",
"j c #bfd5e8",
"k c #c88a80",
"l c #d18f84",
"z c #d29085",
"x c #c4c4c4",
"c c #cdcdcd",
"v c #c7cfda",
"b c #cad6df",
"n c #d6d6d6",
"m c #cbddeb",
"M c #cfe0ed",
"N c #dbe7f1",
"B c #e6e6e6",
"V c #ebebeb",
"C c #f1f1f1",
"Z c #f7f8fa",
"A c #fdfdfd",
"S c None",
/* pixels */
"                ",
" Zmkllllllllzmj ",
" Ny5424442246y* ",
" MynAAAAAAAAAe% ",
" MynnnnnnnnnCq% ",
" MynAAAAACVVCq% ",
" MynnnnnxxxxCq% ",
" MyVAACVVVVVVq% ",
" Mygbvhhhhhhfq% ",
" Myyt1q<qq<<qq% ",
" MyyaxhcVn0@<q% ",
" Mywxxo#nxdX&u% ",
" Mtqxc@:xxx.*u% ",
" ,wqcBo,xxsX*s% ",
"  &%px997=-+$8X ",
"S               "
};
