/* XPM */
static char *X[] = {
/* columns rows colors chars-per-pixel */
"24 24 111 2",
"   c #000000",
".  c #0a0300",
"X  c #130600",
"o  c #1a0801",
"O  c #220c02",
"+  c #280f02",
"@  c #2c1003",
"#  c #451504",
"$  c #4d1804",
"%  c #531b05",
"&  c #5d1d05",
"*  c #651f05",
"=  c #652005",
"-  c #6d2206",
";  c #6a2408",
":  c #672b11",
">  c #722506",
",  c #752a09",
"<  c #7b2707",
"1  c #7d2807",
"2  c #7f2b09",
"3  c #7f3715",
"4  c #842c08",
"5  c #8c2e09",
"6  c #83330d",
"7  c #88360e",
"8  c #96330a",
"9  c #9d340a",
"0  c #9a3e17",
"q  c #a2360b",
"w  c #a6380c",
"e  c #aa3a0c",
"r  c #b13d0d",
"t  c #804a32",
"y  c #a8410e",
"u  c #a24919",
"i  c #aa4410",
"p  c #b5410e",
"a  c #bb430e",
"s  c #b34714",
"d  c #b3491c",
"f  c #bc4a11",
"g  c #a64f27",
"h  c #af4c24",
"j  c #ad5129",
"k  c #b64f25",
"l  c #b3522b",
"z  c #bc5225",
"x  c #b8552e",
"c  c #bb582e",
"v  c #bc5b32",
"b  c #8c634d",
"n  c #9c7663",
"m  c #a3735d",
"M  c #ab7255",
"N  c #a87d6b",
"B  c #c2460f",
"V  c #c5490f",
"C  c #cb4b0f",
"Z  c #c24c12",
"A  c #c94f10",
"S  c #d14e10",
"D  c #d65012",
"F  c #db5412",
"G  c #da5a1c",
"H  c #c65623",
"J  c #c45729",
"K  c #c1592d",
"L  c #c66034",
"P  c #c7663c",
"I  c #c3683d",
"U  c #c96335",
"Y  c #d7612b",
"T  c #df723d",
"R  c #e05713",
"E  c #e35813",
"W  c #e95b13",
"Q  c #e46c2f",
"!  c #e67034",
"~  c #e3733b",
"^  c #cb6d44",
"/  c #ce724a",
"(  c #d37245",
")  c #d4764b",
"_  c #da7546",
"`  c #dd794a",
"'  c #e17641",
"]  c #e47a45",
"[  c #e47f4e",
"{  c #ab8069",
"}  c #a38272",
"|  c #af8673",
" . c #ac8978",
".. c #b18771",
"X. c #b28d7c",
"o. c #c08e78",
"O. c #d28e72",
"+. c #d89375",
"@. c #dc997b",
"#. c #d9a38d",
"$. c #dba893",
"%. c #d8af9b",
"&. c #deb39d",
"*. c #e5b29c",
"=. c #e8b49d",
"-. c #ebc1af",
";. c #ebc8b9",
":. c #dadada",
">. c #ececec",
",. c white",
"<. c None",
/* pixels */
"<.<.<.<.<.<.                        <.<.<.<.<.<.",
"<.<.<.<.<.          o @ @ o           <.<.<.<.<.",
"<.<.<.        + 6 S ` _ _ ( d , O         <.<.<.",
"<.<.      . 7 T O.Q G D S C V V a , .       <.<.",
"<.<.    X s ] ~ E E F F D S C V B p 8 X     <.<.",
"<.    . p ] ! W W W W F D D C V B a r 8 .     <.",
"      6 ~ Q W W A f W E F D V e B a r r ;       ",
"    O Y ] E W u n b y F F V m X.g a p r e o     ",
"    3 ` F E W { ,.,.&.s V } :.,.=.L r r e =     ",
"    I Y F F E M ,.,.,.%. .:.,.,.@.^ p r e 2     ",
"  X ) S D F F f ..,.,.,.,.,.,.*.( P r e e 5 X   ",
"  O ( C S D F F F ..,.,.,.,.*.) J r r r q 4 o   ",
"  O ( V C D D D D X.,.,.,.,.-.H r r r e w > o   ",
"  . ^ B V C C y X.>.,.,.,.,.,.;.z r r w w = .   ",
"    j a B V e m ,.,.,.*.*.,.,.,.$.k e w 5 &     ",
"    t a a B 8 N ,.,.*.L J *.,.,.$.l w 8 1 #     ",
"    o v p a a 0 X.+.U B H z O.#.l h q 4 > X     ",
"      : c s r r K K r r r k x l j q 9 * #       ",
"<.    . 4 l k r e r r e e e w q q 8 * * .     <.",
"<.<.    . 4 l d e e e e w w q q < * * .     <.<.",
"<.<.      . % q q q q q q 9 4 * - % .       <.<.",
"<.<.<.        o % , 5 1 * * & $ o         <.<.<.",
"<.<.<.<.<.          . o o .           <.<.<.<.<.",
"<.<.<.<.<.<.                        <.<.<.<.<.<."
};
