/* XPM */
static char *save[] = {
/* columns rows colors chars-per-pixel */
"24 24 128 2",
"   c opaque",
".  c #0c0d0f",
"X  c #28323e",
"o  c #33383c",
"O  c #363c40",
"+  c #313e49",
"@  c #383e43",
"#  c #34464e",
"$  c #3b444c",
"%  c #364853",
"&  c #364a59",
"*  c #3a515d",
"=  c #3b5360",
"-  c #40474d",
";  c #414a4e",
":  c #4e4a43",
">  c #434c53",
",  c #475158",
"<  c #4a545b",
"1  c #514e46",
"2  c #455c6d",
"3  c #4f5b62",
"4  c #4e5e6a",
"5  c #465e70",
"6  c #515b63",
"7  c #496173",
"8  c #4c6579",
"9  c #4e687c",
"0  c #556169",
"q  c #59646d",
"w  c #5d6a73",
"e  c #5b6e7c",
"r  c #735b5b",
"t  c #605f68",
"y  c #67655e",
"u  c gray39",
"i  c #626169",
"p  c #6c6c6c",
"a  c #626f79",
"s  c #686670",
"d  c #6b6f72",
"f  c #6f777e",
"g  c #737273",
"h  c #75757a",
"j  c gray48",
"k  c #4e6e82",
"l  c #526c80",
"z  c #557086",
"x  c #54738c",
"c  c #65859c",
"v  c #6e899e",
"b  c #778999",
"n  c #7a8e9a",
"m  c #6b8da5",
"M  c #6f90ac",
"N  c #718ca2",
"B  c #7192ad",
"V  c #7897b3",
"C  c #7c9bb3",
"Z  c #7da0b6",
"A  c #7fa2b9",
"S  c #bf6b64",
"D  c #ba6c6a",
"F  c #c36559",
"G  c #c16a62",
"H  c #ce7365",
"J  c #cb7b72",
"K  c #d47d6e",
"L  c #db7968",
"P  c #c8817b",
"I  c #d48173",
"U  c #dc8171",
"Y  c #e0816e",
"T  c #e08d7e",
"R  c #97938c",
"E  c #9b968e",
"W  c #819eb6",
"Q  c #85a2b6",
"!  c #84a1b9",
"~  c #89a5bb",
"^  c #a4a099",
"/  c #b8b3ab",
"(  c #b8b5b0",
")  c gray75",
"_  c #87abc1",
"`  c #88a7c3",
"'  c #8aaac5",
"]  c #a4b9cb",
"[  c #a1bed6",
"{  c #9bc3d8",
"}  c #a2c2db",
"|  c #aac6dd",
" . c #b3cadc",
".. c #baccdc",
"X. c #abc4e2",
"o. c #aacae2",
"O. c #b4cbe4",
"+. c #b4d2e6",
"@. c #b9d3e6",
"#. c #bad5e8",
"$. c #c0bcb5",
"%. c #c2bfb9",
"&. c #e9b7ad",
"*. c #e9b8af",
"=. c #e5bfba",
"-. c #ecbcb3",
";. c #c7c4be",
":. c #eec3b9",
">. c #f0c6bc",
",. c #f1c8be",
"<. c #c5c5c5",
"1. c #c9c6c0",
"2. c #ccc9c3",
"3. c #cdcdcc",
"4. c #d1cec9",
"5. c #d6d4d0",
"6. c #d9d7d4",
"7. c #dbd9d5",
"8. c #dfddda",
"9. c #c3d7f4",
"0. c #e0deda",
"q. c #e2e0dd",
"w. c #e5e4e1",
"e. c #e9e8e6",
"r. c #ebeae8",
"t. c #f0efec",
"y. c white",
"u. c None",
/* pixels */
"u.u.u.u.u.u.u.u.u.u.u.u.u.u.u.u.u.u.u.u.u.u.u.u.",
"u.                                              ",
"u.  9.o.j ,.>.5.-.-.>.-.*.*.-.*.-.=.g O.[       ",
"u.  #.' r T L L L Y L K K H H H F F i ~ z       ",
"u.  #.` s P J J J J J S J G J F F D s C z       ",
"u.  +._ g y.y.y.y.y.y.y.y.y.y.y.y.y.g W l       ",
"u.  #.` g y.y.y.y.y.y.y.y.y.y.y.y.y.g ! 9       ",
"u.  @.! g 3.3.3.3.3.3.3.3.3.3.3.3.) g ~ 7       ",
"u.  +.! u y.y.y.y.y.y.y.y.y.y.y.y.y.g ~ 2       ",
"u.  O.A g y.y.y.y.y.y.y.y.y.y.y.y.y.g ! 2       ",
"u.  o.C g 3.3.3.3.3.3.3.3.3.3.3.3.<.g ! 0       ",
"u.  +.Q r y.y.y.y.y.y.y.y.y.y.y.y.y.g W 6       ",
"u.  o.C n j g g g g g d p g g g g p f ! *       ",
"u.  o.V W W ! W C W W V ! ! ! ! W ~ W ~ &       ",
"u.  X.M M B - > 6 a w w q q 0 6 = $ V ] %       ",
"u.  o.M m < R 0.q.r.r.r.0.4.;.E 0 8 x | #       ",
"u.  o.m m - 6.q.y 1 1 6.;.( / 4.> 9 k  .+       ",
"u.  o.m m - q.t.y 1 1 2.;.%.2.7.< 9 k ..+       ",
"u.  } m b $ q.r.1 : 1 2.$.2.q.e., 9 k } $       ",
"u.  b v c o 5.5.: : : ( 4.q.r.w.> 7 8 } o       ",
"u.  . 0 e 3 ^ ( / 2.2.5.w.e.8.( ; 7 7 { o       ",
"u.                                    X         ",
"u.                                              ",
"u.u.                                            "
};
